<?xml version="1.0" encoding="UTF-8"?>
<svg xmlns="http://www.w3.org/2000/svg" xmlns:xlink="http://www.w3.org/1999/xlink" width="720pt" height="720pt" viewBox="0 0 720 720" version="1.1">
<g id="surface1">
<rect x="0" y="0" width="720" height="720" style="fill:rgb(100%,100%,100%);fill-opacity:1;stroke:none;"/>
<path style="fill:none;stroke-width:1;stroke-linecap:butt;stroke-linejoin:miter;stroke:rgb(0%,0%,0%);stroke-opacity:1;stroke-miterlimit:10;" d="M 311 266 L 308 249 L 290 248 L 273 254 L 255 253 L 257 233 L 278 233 L 298 232 L 305 217 L 318 228 L 325 243 L 328 259 L 330 275 L 327 291 L 329 308 L 319 322 L 309 339 L 309 357 L 290 351 L 271 355 L 277 371 L 259 368 L 255 386 L 271 390 L 287 386 L 296 371 L 314 376 L 332 378 L 350 385 L 370 390 L 389 388 L 406 391 L 418 378 L 401 371 L 410 354 L 425 346 L 428 364 L 435 382 L 425 398 L 429 418 L 443 400 L 452 384 L 465 390 L 470 372 L 463 355 L 449 367 L 443 350 L 455 339 L 467 326 L 475 341 L 483 357 L 501 357 L 518 360 L 529 347 L 542 335 L 524 328 L 520 311 L 533 299 L 538 315 L 552 323 L 556 304 L 547 288 L 538 271 L 529 283 L 515 289 L 506 304 L 504 322 L 511 341 L 494 339 L 484 324 L 489 308 L 496 292 L 486 280 L 483 265 L 499 260 L 502 275 L 518 270 L 528 255 L 514 254 L 515 238 L 502 243 L 491 235 L 501 223 L 484 222 L 482 208 L 467 218 L 466 198 L 451 206 L 449 189 L 431 181 L 432 198 L 435 214 L 426 226 L 415 212 L 413 176 L 396 172 L 394 187 L 397 203 L 395 220 L 409 231 L 420 243 L 433 253 L 443 264 L 451 250 L 439 237 L 450 224 L 460 236 L 475 236 L 485 249 L 468 255 L 458 269 L 471 276 L 460 289 L 477 294 L 469 309 L 452 306 L 450 322 L 434 330 L 433 312 L 415 313 L 414 331 L 397 339 L 388 353 L 381 370 L 364 371 L 368 351 L 378 331 L 360 332 L 347 345 L 347 363 L 328 356 L 330 337 L 343 322 L 362 313 L 379 308 L 396 321 L 398 303 L 396 286 L 413 292 L 427 294 L 443 294 L 444 279 L 426 275 L 408 273 L 418 259 L 401 254 L 394 239 L 378 233 L 367 220 L 357 234 L 364 250 L 381 253 L 388 269 L 368 270 L 380 287 L 364 292 L 346 300 L 348 281 L 349 264 L 344 248 L 338 231 L 350 216 L 334 214 L 320 208 L 323 192 L 341 196 L 356 187 L 362 203 L 380 209 L 376 190 L 380 172 L 363 172 L 345 174 L 328 177 L 308 181 L 304 199 L 289 190 L 271 199 L 287 212 L 269 218 L 252 211 L 237 224 L 220 237 L 238 243 L 238 261 L 222 257 L 205 252 L 192 266 L 211 271 L 217 288 L 230 277 L 235 295 L 236 312 L 219 307 L 211 323 L 198 313 L 203 298 L 198 283 L 180 282 L 186 297 L 169 299 L 180 313 L 164 315 L 149 308 L 150 320 L 144 331 L 135 340 L 123 333 L 131 318 L 113 318 L 118 303 L 122 287 L 134 301 L 137 286 L 145 271 L 154 258 L 162 244 L 174 233 L 159 224 L 147 232 L 143 246 L 133 259 L 129 272 L 115 271 L 110 257 L 109 241 L 125 246 L 129 231 L 124 215 L 130 202 L 141 216 L 149 202 L 163 210 L 165 195 L 156 182 L 143 173 L 140 189 L 127 180 L 117 191 L 109 206 L 111 224 L 96 230 L 91 215 L 79 231 L 65 223 L 74 209 L 80 192 L 94 198 L 103 183 L 88 177 L 99 164 L 113 168 L 129 164 L 125 151 L 110 148 L 130 122 L 147 126 L 144 111 L 158 105 L 174 112 L 162 125 L 178 131 L 192 141 L 181 153 L 167 147 L 153 142 L 137 139 L 142 155 L 156 162 L 170 167 L 174 182 L 189 186 L 182 200 L 176 215 L 187 221 L 198 209 L 201 195 L 215 194 L 231 182 L 218 177 L 203 177 L 187 170 L 198 158 L 213 160 L 230 162 L 245 171 L 260 162 L 244 150 L 227 143 L 210 142 L 201 127 L 190 116 L 189 99 L 172 92 L 188 80 L 205 89 L 223 84 L 208 70 L 227 60 L 248 54 L 240 72 L 258 77 L 269 60 L 267 44 L 286 43 L 305 37 L 323 34 L 339 39 L 355 33 L 375 35 L 394 36 L 383 57 L 403 55 L 415 37 L 425 56 L 438 41 L 446 59 L 460 46 L 468 66 L 481 53 L 501 61 L 490 71 L 479 83 L 464 91 L 453 77 L 415 73 L 397 75 L 380 83 L 366 71 L 362 52 L 344 59 L 324 54 L 305 55 L 289 63 L 277 76 L 278 92 L 261 98 L 248 111 L 242 92 L 227 105 L 208 107 L 217 124 L 234 125 L 248 132 L 264 122 L 278 112 L 296 124 L 279 134 L 262 143 L 278 154 L 295 146 L 314 142 L 317 126 L 336 136 L 357 134 L 349 115 L 330 113 L 311 109 L 295 102 L 297 83 L 312 72 L 330 75 L 317 92 L 338 95 L 350 80 L 360 96 L 380 102 L 370 118 L 381 135 L 393 118 L 405 136 L 427 142 L 423 126 L 412 112 L 400 96 L 421 93 L 442 93 L 433 110 L 452 110 L 469 109 L 480 122 L 494 133 L 477 142 L 462 130 L 443 128 L 447 147 L 463 154 L 480 164 L 493 152 L 509 157 L 498 174 L 517 172 L 513 190 L 530 186 L 532 204 L 545 220 L 558 237 L 576 243 L 570 257 L 586 265 L 581 278 L 598 283 L 605 267 L 622 273 L 646 295 L 654 282 L 659 268 L 640 265 L 654 251 L 642 245 L 629 247 L 620 258 L 608 246 L 593 251 L 592 234 L 606 226 L 620 234 L 635 227 L 637 210 L 621 216 L 607 208 L 596 197 L 595 180 L 581 188 L 576 205 L 591 215 L 575 225 L 562 218 L 555 202 L 546 187 L 565 186 L 574 170 L 590 164 L 591 148 L 579 137 L 576 152 L 561 156 L 555 170 L 538 169 L 544 151 L 527 156 L 528 139 L 510 139 L 515 123 L 525 109 L 534 123 L 546 133 L 561 139 L 568 124 L 555 119 L 544 109 L 535 96 L 520 90 L 509 103 L 498 115 L 484 102 L 496 92 L 507 80 L 520 70 L 533 79 L 547 87 L 557 97 L 567 106 L 579 111 L 583 123 L 594 122 L 596 135 L 608 140 L 604 156 L 619 156 L 628 171 L 610 171 L 614 186 L 624 198 L 638 186 L 649 200 L 656 217 L 650 231 L 665 236 L 670 253 L 675 269 L 674 285 L 664 301 L 682 299 L 681 316 L 685 335 L 685 355 L 670 348 L 657 357 L 642 357 L 626 354 L 636 341 L 652 338 L 669 331 L 658 319 L 645 310 L 636 323 L 616 319 L 627 303 L 615 288 L 607 303 L 590 298 L 578 312 L 568 323 L 582 334 L 596 318 L 601 335 L 619 336 L 610 352 L 592 353 L 576 355 L 562 341 L 559 360 L 546 352 L 536 367 L 551 378 L 537 391 L 518 394 L 523 378 L 505 377 L 489 374 L 483 389 L 499 396 L 510 410 L 528 410 L 519 426 L 526 441 L 538 426 L 551 437 L 543 453 L 527 457 L 527 473 L 542 475 L 555 467 L 570 466 L 562 451 L 570 437 L 577 423 L 572 407 L 559 420 L 545 409 L 557 396 L 573 389 L 567 374 L 585 374 L 602 369 L 619 368 L 617 384 L 601 387 L 588 396 L 591 413 L 605 405 L 619 400 L 621 415 L 637 407 L 636 424 L 651 421 L 655 404 L 648 390 L 632 391 L 635 374 L 653 374 L 666 386 L 670 368 L 685 375 L 683 394 L 670 402 L 682 414 L 667 419 L 677 433 L 662 435 L 645 438 L 655 449 L 672 451 L 658 463 L 668 472 L 659 488 L 649 476 L 632 475 L 641 460 L 632 447 L 623 460 L 615 473 L 601 474 L 601 458 L 603 441 L 616 447 L 623 433 L 608 424 L 593 429 L 587 442 L 581 454 L 587 469 L 574 481 L 558 484 L 543 493 L 527 489 L 525 506 L 520 523 L 511 539 L 516 553 L 512 569 L 497 555 L 492 573 L 477 563 L 470 579 L 484 590 L 481 606 L 465 597 L 450 607 L 440 621 L 425 630 L 418 644 L 416 661 L 433 656 L 442 642 L 456 629 L 468 618 L 489 622 L 497 636 L 510 622 L 527 616 L 518 602 L 499 606 L 503 588 L 520 584 L 535 593 L 535 575 L 531 559 L 531 540 L 538 524 L 543 509 L 559 502 L 557 520 L 553 536 L 573 532 L 582 548 L 565 550 L 546 551 L 553 567 L 551 583 L 569 585 L 571 568 L 588 567 L 600 551 L 611 537 L 593 533 L 587 517 L 572 513 L 577 498 L 589 487 L 596 503 L 606 489 L 622 489 L 639 491 L 651 503 L 643 517 L 631 506 L 614 505 L 605 519 L 623 522 L 637 532 L 627 542 L 619 556 L 608 567 L 600 580 L 586 588 L 576 603 L 561 615 L 558 599 L 543 608 L 544 626 L 528 634 L 514 643 L 498 652 L 481 656 L 478 637 L 462 646 L 465 665 L 451 660 L 441 672 L 424 676 L 405 677 L 399 661 L 400 644 L 407 626 L 406 606 L 424 610 L 435 595 L 418 589 L 399 586 L 387 600 L 389 617 L 386 633 L 381 649 L 365 641 L 370 623 L 370 604 L 351 609 L 332 606 L 332 624 L 351 628 L 339 643 L 319 640 L 324 658 L 340 663 L 353 654 L 367 661 L 383 665 L 388 679 L 370 679 L 353 677 L 334 678 L 316 675 L 296 673 L 276 668 L 286 652 L 305 655 L 296 636 L 309 624 L 315 609 L 320 590 L 316 571 L 312 554 L 332 555 L 352 551 L 352 570 L 334 574 L 342 590 L 360 587 L 378 583 L 371 565 L 391 569 L 389 551 L 371 546 L 380 529 L 385 509 L 372 495 L 365 514 L 358 531 L 338 535 L 345 515 L 352 497 L 359 478 L 338 481 L 330 463 L 349 461 L 359 445 L 337 441 L 322 422 L 340 420 L 357 426 L 374 430 L 392 426 L 401 445 L 383 447 L 371 461 L 379 477 L 395 465 L 394 487 L 402 503 L 401 520 L 399 535 L 410 549 L 411 569 L 425 557 L 433 574 L 451 583 L 457 564 L 443 554 L 431 539 L 420 527 L 419 509 L 416 491 L 413 474 L 415 457 L 421 438 L 410 426 L 410 410 L 392 406 L 374 410 L 356 405 L 336 401 L 320 399 L 303 393 L 288 404 L 302 415 L 306 433 L 315 447 L 312 465 L 316 484 L 311 503 L 331 500 L 325 519 L 318 537 L 305 523 L 296 542 L 281 556 L 297 564 L 299 583 L 299 601 L 288 617 L 275 631 L 264 612 L 244 617 L 253 635 L 266 648 L 256 663 L 239 653 L 218 647 L 231 633 L 213 623 L 200 637 L 184 629 L 171 618 L 157 609 L 144 599 L 161 592 L 176 601 L 192 593 L 194 613 L 209 602 L 227 608 L 229 588 L 246 597 L 261 587 L 279 597 L 279 577 L 262 565 L 245 572 L 234 556 L 223 570 L 209 582 L 192 573 L 176 581 L 173 562 L 159 571 L 147 583 L 131 587 L 120 574 L 108 561 L 100 547 L 88 535 L 94 520 L 109 529 L 118 544 L 129 530 L 122 515 L 106 509 L 89 502 L 78 517 L 70 501 L 65 486 L 59 471 L 76 466 L 92 469 L 83 485 L 103 488 L 118 497 L 124 481 L 109 471 L 120 459 L 117 443 L 119 427 L 103 417 L 98 433 L 100 452 L 83 445 L 67 450 L 52 456 L 49 440 L 64 432 L 80 424 L 86 408 L 71 400 L 61 413 L 44 423 L 42 405 L 39 384 L 54 393 L 68 381 L 73 365 L 77 350 L 81 333 L 78 317 L 61 318 L 66 335 L 57 352 L 54 370 L 38 363 L 38 344 L 50 332 L 39 319 L 53 305 L 42 295 L 47 276 L 62 286 L 70 299 L 86 303 L 87 288 L 79 274 L 65 267 L 52 257 L 58 240 L 73 251 L 91 245 L 91 259 L 98 273 L 106 286 L 102 300 L 96 314 L 95 326 L 108 334 L 95 342 L 93 357 L 90 373 L 86 388 L 102 398 L 107 381 L 122 390 L 118 407 L 132 415 L 141 399 L 161 402 L 149 416 L 140 433 L 138 449 L 136 468 L 144 482 L 162 479 L 180 479 L 172 494 L 154 499 L 136 498 L 140 515 L 155 517 L 170 513 L 185 508 L 183 527 L 166 531 L 148 533 L 138 546 L 127 558 L 137 571 L 147 559 L 160 548 L 178 544 L 190 556 L 208 560 L 218 544 L 199 540 L 211 526 L 197 519 L 204 502 L 191 492 L 202 478 L 189 465 L 203 455 L 203 437 L 212 421 L 224 405 L 208 403 L 194 416 L 182 431 L 183 447 L 171 461 L 153 461 L 161 443 L 163 426 L 176 413 L 183 398 L 199 391 L 188 379 L 170 386 L 153 383 L 136 381 L 123 369 L 107 365 L 113 350 L 129 353 L 141 364 L 150 349 L 158 365 L 173 369 L 188 361 L 185 345 L 169 350 L 160 334 L 174 331 L 190 327 L 201 336 L 202 352 L 205 369 L 213 382 L 226 387 L 239 393 L 242 375 L 227 368 L 220 355 L 217 339 L 228 326 L 235 343 L 244 357 L 256 343 L 249 327 L 254 308 L 268 320 L 273 337 L 288 330 L 302 319 L 308 302 L 308 283 L 291 290 L 285 309 L 270 296 L 252 290 L 248 274 L 264 273 L 279 277 L 292 266 L 311 266 " transform="matrix(1,0,0,-1,0,720)"/>
</g>
</svg>
